<mxfile host="app.diagrams.net" agent="Mozilla/5.0 (Windows NT 10.0; Win64; x64) AppleWebKit/537.36 (KHTML, like Gecko) Chrome/134.0.0.0 Safari/537.36" version="26.2.12">
  <diagram name="第 1 页" id="ESbA8u7xyTZOhsOZo6Jv">
    <mxGraphModel dx="2399" dy="898" grid="1" gridSize="10" guides="1" tooltips="1" connect="1" arrows="1" fold="1" page="1" pageScale="1" pageWidth="827" pageHeight="1169" math="0" shadow="0">
      <root>
        <mxCell id="0" />
        <mxCell id="1" parent="0" />
        <mxCell id="PFzhmYUPQmIxrMrjRoEu-1" value="服务端" style="whiteSpace=wrap;html=1;" vertex="1" parent="1">
          <mxGeometry x="-10" y="310" width="120" height="60" as="geometry" />
        </mxCell>
        <mxCell id="PFzhmYUPQmIxrMrjRoEu-15" style="edgeStyle=orthogonalEdgeStyle;rounded=0;orthogonalLoop=1;jettySize=auto;html=1;exitX=0.5;exitY=1;exitDx=0;exitDy=0;entryX=0.5;entryY=0;entryDx=0;entryDy=0;" edge="1" parent="1" source="PFzhmYUPQmIxrMrjRoEu-3" target="PFzhmYUPQmIxrMrjRoEu-4">
          <mxGeometry relative="1" as="geometry" />
        </mxCell>
        <mxCell id="PFzhmYUPQmIxrMrjRoEu-3" value="运行&amp;nbsp;PuduRobotOpenServer-win.exe" style="whiteSpace=wrap;html=1;" vertex="1" parent="1">
          <mxGeometry x="190" y="60" width="260" height="60" as="geometry" />
        </mxCell>
        <mxCell id="PFzhmYUPQmIxrMrjRoEu-4" value="本地/api数据接受返回打印&lt;div&gt;127.0.0.1:11626&lt;/div&gt;" style="whiteSpace=wrap;html=1;" vertex="1" parent="1">
          <mxGeometry x="190" y="310" width="260" height="60" as="geometry" />
        </mxCell>
        <mxCell id="PFzhmYUPQmIxrMrjRoEu-13" style="edgeStyle=orthogonalEdgeStyle;rounded=0;orthogonalLoop=1;jettySize=auto;html=1;exitX=1;exitY=0.5;exitDx=0;exitDy=0;entryX=1;entryY=0.5;entryDx=0;entryDy=0;" edge="1" parent="1" source="PFzhmYUPQmIxrMrjRoEu-7" target="PFzhmYUPQmIxrMrjRoEu-3">
          <mxGeometry relative="1" as="geometry">
            <Array as="points">
              <mxPoint x="540" y="540" />
              <mxPoint x="540" y="90" />
            </Array>
          </mxGeometry>
        </mxCell>
        <mxCell id="PFzhmYUPQmIxrMrjRoEu-14" style="edgeStyle=orthogonalEdgeStyle;rounded=0;orthogonalLoop=1;jettySize=auto;html=1;exitX=0.5;exitY=0;exitDx=0;exitDy=0;entryX=0.5;entryY=1;entryDx=0;entryDy=0;" edge="1" parent="1" source="PFzhmYUPQmIxrMrjRoEu-7" target="PFzhmYUPQmIxrMrjRoEu-4">
          <mxGeometry relative="1" as="geometry" />
        </mxCell>
        <mxCell id="PFzhmYUPQmIxrMrjRoEu-7" value="向微服务发送 /api/notify/url&amp;nbsp;&lt;br&gt;（可能是注册数据打印回调）" style="whiteSpace=wrap;html=1;" vertex="1" parent="1">
          <mxGeometry x="190" y="510" width="260" height="60" as="geometry" />
        </mxCell>
      </root>
    </mxGraphModel>
  </diagram>
</mxfile>
